<svg id="visual" viewBox="0 0 1366 100" width="1366" height="100" xmlns="http://www.w3.org/2000/svg" xmlns:xlink="http://www.w3.org/1999/xlink" version="1.1"><path d="M0 67L19 65C38 63 76 59 114 52.2C152 45.3 190 35.7 228 38.7C266 41.7 304 57.3 341.8 66C379.7 74.7 417.3 76.3 455.2 70.7C493 65 531 52 569 49C607 46 645 53 683 58.2C721 63.3 759 66.7 797 68.7C835 70.7 873 71.3 911 63.5C949 55.7 987 39.3 1024.8 39.5C1062.7 39.7 1100.3 56.3 1138.2 60.7C1176 65 1214 57 1252 57.7C1290 58.3 1328 67.7 1347 72.3L1366 77L1366 0L1347 0C1328 0 1290 0 1252 0C1214 0 1176 0 1138.2 0C1100.3 0 1062.7 0 1024.8 0C987 0 949 0 911 0C873 0 835 0 797 0C759 0 721 0 683 0C645 0 607 0 569 0C531 0 493 0 455.2 0C417.3 0 379.7 0 341.8 0C304 0 266 0 228 0C190 0 152 0 114 0C76 0 38 0 19 0L0 0Z" fill="#0066FF" stroke-linecap="round" stroke-linejoin="miter"></path></svg>